<?xml version="1.0" standalone="no"?>
<!DOCTYPE svg PUBLIC "-//W3C//DTD SVG 20010904//EN"
 "http://www.w3.org/TR/2001/REC-SVG-20010904/DTD/svg10.dtd">
<svg version="1.0" xmlns="http://www.w3.org/2000/svg"
 width="1024.000000pt" height="1024.000000pt" viewBox="0 0 1024.000000 1024.000000"
 preserveAspectRatio="xMidYMid meet">

<g transform="translate(0.000000,1024.000000) scale(0.100000,-0.100000)"
fill="#000000" stroke="none">
<path d="M1647 7249 c-36 -4 -86 -20 -132 -43 -236 -117 -309 -421 -151 -632
24 -33 822 -836 1772 -1785 1636 -1634 1733 -1728 1798 -1760 124 -60 293 -51
406 21 25 16 829 814 1787 1772 1988 1989 1798 1779 1798 1978 0 111 -1 118
-34 185 -84 169 -267 267 -447 237 -146 -24 -32 82 -1752 -1636 l-1572 -1571
-1588 1586 c-1418 1417 -1593 1589 -1645 1613 -66 31 -157 44 -240 35z"/>
</g>
</svg>
