<?xml version="1.0" standalone="no"?>
<!DOCTYPE svg PUBLIC "-//W3C//DTD SVG 20010904//EN"
 "http://www.w3.org/TR/2001/REC-SVG-20010904/DTD/svg10.dtd">
<svg version="1.0" xmlns="http://www.w3.org/2000/svg"
 width="666.000000pt" height="194.000000pt" viewBox="0 0 666.000000 194.000000"
 preserveAspectRatio="xMidYMid meet">

<g transform="translate(0.000000,194.000000) scale(0.100000,-0.100000)"
fill="#000000" stroke="none">
<path d="M70 1840 c0 -27 3 -30 30 -30 27 0 30 3 30 30 0 27 -3 30 -30 30 -27
0 -30 -3 -30 -30z"/>
<path d="M200 1835 c0 -32 2 -35 30 -35 28 0 30 3 30 35 0 32 -2 35 -30 35
-28 0 -30 -3 -30 -35z"/>
<path d="M330 1835 c0 -32 3 -35 29 -35 23 0 30 5 34 27 7 36 2 43 -34 43 -27
0 -29 -3 -29 -35z"/>
<path d="M460 1830 c0 -28 3 -30 35 -30 32 0 35 2 35 30 0 28 -3 30 -35 30
-32 0 -35 -2 -35 -30z"/>
<path d="M590 1830 c0 -28 3 -30 35 -30 32 0 35 2 35 30 0 28 -3 30 -35 30
-32 0 -35 -2 -35 -30z"/>
<path d="M720 1830 c0 -28 3 -30 35 -30 32 0 35 2 35 30 0 28 -3 30 -35 30
-32 0 -35 -2 -35 -30z"/>
<path d="M850 1825 c0 -33 2 -35 35 -35 33 0 35 2 35 35 0 33 -2 35 -35 35
-33 0 -35 -2 -35 -35z"/>
<path d="M987 1853 c-4 -3 -7 -19 -7 -35 0 -25 3 -28 35 -28 33 0 35 2 35 35
0 32 -3 35 -28 35 -16 0 -32 -3 -35 -7z"/>
<path d="M1110 1820 c0 -28 3 -30 35 -30 32 0 35 2 35 30 0 28 -3 30 -35 30
-32 0 -35 -2 -35 -30z"/>
<path d="M1240 1820 c0 -28 3 -30 35 -30 32 0 35 2 35 30 0 28 -3 30 -35 30
-32 0 -35 -2 -35 -30z"/>
<path d="M1376 1834 c-13 -34 -7 -44 29 -44 32 0 35 2 35 30 0 26 -3 30 -29
30 -17 0 -31 -6 -35 -16z"/>
<path d="M1510 1815 c0 -32 2 -35 30 -35 28 0 30 3 30 35 0 32 -2 35 -30 35
-28 0 -30 -3 -30 -35z"/>
<path d="M1640 1815 c0 -32 2 -35 30 -35 28 0 30 3 30 35 0 32 -2 35 -30 35
-28 0 -30 -3 -30 -35z"/>
<path d="M1770 1810 c0 -27 3 -30 30 -30 27 0 30 3 30 30 0 27 -3 30 -30 30
-27 0 -30 -3 -30 -30z"/>
<path d="M1900 1810 c0 -27 3 -30 30 -30 27 0 30 3 30 30 0 27 -3 30 -30 30
-27 0 -30 -3 -30 -30z"/>
<path d="M2030 1810 c0 -19 5 -30 14 -30 8 0 21 -3 30 -6 13 -5 16 1 16 30 0
33 -2 36 -30 36 -27 0 -30 -3 -30 -30z"/>
<path d="M2160 1805 c0 -32 2 -35 30 -35 28 0 30 3 30 35 0 32 -2 35 -30 35
-28 0 -30 -3 -30 -35z"/>
<path d="M2290 1805 c0 -32 2 -35 30 -35 28 0 30 3 30 35 0 32 -2 35 -30 35
-28 0 -30 -3 -30 -35z"/>
<path d="M2420 1799 c0 -28 2 -30 33 -27 27 2 33 8 35 31 3 25 1 27 -32 27
-33 0 -36 -2 -36 -31z"/>
<path d="M2550 1800 c0 -28 3 -30 35 -30 32 0 35 2 35 30 0 28 -3 30 -35 30
-32 0 -35 -2 -35 -30z"/>
<path d="M2680 1801 c0 -23 6 -30 25 -35 35 -9 45 -1 45 35 0 27 -3 29 -35 29
-32 0 -35 -3 -35 -29z"/>
<path d="M2810 1795 c0 -33 2 -35 35 -35 33 0 35 2 35 35 0 33 -2 35 -35 35
-33 0 -35 -2 -35 -35z"/>
<path d="M2947 1824 c-4 -4 -7 -20 -7 -36 0 -25 3 -28 36 -28 34 0 35 1 32 33
-2 26 -8 33 -28 35 -14 2 -29 0 -33 -4z"/>
<path d="M3070 1790 c0 -28 3 -30 35 -30 32 0 35 2 35 30 0 28 -3 30 -35 30
-32 0 -35 -2 -35 -30z"/>
<path d="M3200 1790 c0 -28 3 -30 35 -30 32 0 35 2 35 30 0 28 -3 30 -35 30
-32 0 -35 -2 -35 -30z"/>
<path d="M3330 1791 c0 -21 6 -30 23 -35 41 -11 47 -7 47 29 0 33 -2 35 -35
35 -32 0 -35 -3 -35 -29z"/>
<path d="M3468 1790 c-5 -36 -3 -40 34 -40 25 0 28 3 28 35 0 32 -3 35 -29 35
-24 0 -29 -5 -33 -30z"/>
<path d="M3600 1785 c0 -32 2 -35 30 -35 28 0 30 3 30 35 0 32 -2 35 -30 35
-28 0 -30 -3 -30 -35z"/>
<path d="M3730 1780 c0 -27 3 -30 30 -30 27 0 30 3 30 30 0 27 -3 30 -30 30
-27 0 -30 -3 -30 -30z"/>
<path d="M3860 1780 c0 -27 3 -30 30 -30 27 0 30 3 30 30 0 27 -3 30 -30 30
-27 0 -30 -3 -30 -30z"/>
<path d="M3990 1781 c0 -28 14 -41 46 -41 9 0 14 11 14 35 0 32 -2 35 -30 35
-26 0 -30 -3 -30 -29z"/>
<path d="M4120 1775 c0 -32 2 -35 30 -35 28 0 30 3 30 35 0 32 -2 35 -30 35
-28 0 -30 -3 -30 -35z"/>
<path d="M4250 1775 c0 -32 2 -35 30 -35 28 0 30 3 30 35 0 32 -2 35 -30 35
-28 0 -30 -3 -30 -35z"/>
<path d="M4380 1770 c0 -26 3 -30 29 -30 21 0 30 6 35 23 9 35 8 37 -29 37
-32 0 -35 -2 -35 -30z"/>
<path d="M4510 1770 c0 -28 3 -30 35 -30 32 0 35 2 35 30 0 28 -3 30 -35 30
-32 0 -35 -2 -35 -30z"/>
<path d="M4642 1768 c3 -29 6 -33 33 -33 27 0 30 4 33 33 3 31 2 32 -33 32
-35 0 -36 -1 -33 -32z"/>
<path d="M4770 1765 c0 -31 3 -35 25 -35 22 0 25 4 25 35 0 31 -3 35 -25 35
-22 0 -25 -4 -25 -35z"/>
<path d="M875 1668 c-27 -51 -65 -124 -85 -163 -112 -212 -242 -467 -239 -470
2 -1 60 -19 128 -38 68 -20 124 -37 126 -39 1 -2 -32 -100 -75 -218 l-78 -215
-32 3 c-80 6 -194 92 -234 176 -29 61 -44 150 -27 160 6 4 11 20 11 37 0 20 5
29 16 29 27 0 72 32 89 64 13 26 16 60 13 201 l-3 170 -32 3 -32 3 -3 92 -3
92 -30 0 -30 0 -3 -92 -3 -93 -69 0 -69 0 -3 93 -3 92 -30 0 -30 0 -3 -92 -3
-92 -32 -3 -32 -3 0 -182 0 -182 29 -30 c16 -16 42 -33 57 -36 24 -5 29 -12
29 -35 0 -16 6 -33 13 -37 7 -4 19 -41 26 -81 32 -183 164 -330 333 -372 40
-10 44 -14 40 -36 -5 -28 13 -32 27 -6 9 17 21 18 114 14 288 -13 502 125 580
373 21 67 43 193 61 346 8 70 22 141 30 158 22 41 65 62 145 69 l66 7 0 60 0
60 -69 -2 c-110 -2 -192 -41 -240 -113 -33 -50 -42 -88 -66 -277 -24 -189 -50
-299 -85 -360 -53 -89 -149 -158 -256 -182 -44 -11 -159 -15 -159 -6 0 2 101
130 225 284 124 154 225 284 225 289 0 9 -79 41 -266 107 -53 18 -69 28 -67
42 1 17 27 186 58 393 25 164 17 170 -50 38z m-685 -213 c0 -50 -4 -85 -10
-85 -6 0 -10 35 -10 85 0 50 4 85 10 85 6 0 10 -35 10 -85z m210 -1 c0 -64 -3
-85 -12 -81 -9 2 -13 28 -13 78 -1 79 1 89 16 89 5 0 9 -39 9 -86z m1200 -59
c0 -31 -3 -35 -35 -40 -19 -3 -51 -7 -70 -10 -47 -8 -102 -58 -115 -104 -5
-20 -17 -95 -25 -167 -35 -301 -82 -435 -185 -528 -107 -97 -220 -137 -383
-137 -60 0 -112 2 -114 5 -3 3 5 18 18 35 22 27 30 30 84 31 220 2 384 109
443 286 25 73 48 197 62 334 15 144 33 204 78 252 43 46 122 77 195 78 l47 0
0 -35z m-1130 -244 c0 -127 -8 -154 -52 -181 -27 -16 -51 -20 -131 -20 -173 0
-197 25 -197 205 l0 105 190 0 190 0 0 -109z m-145 -328 c27 -162 113 -267
253 -310 31 -9 59 -18 60 -19 2 -1 -2 -18 -9 -38 -11 -31 -16 -35 -38 -30 -45
10 -152 63 -192 95 -78 61 -148 202 -149 297 0 41 1 42 35 42 32 0 35 -3 40
-37z"/>
<path d="M703 1623 c-7 -2 -13 -9 -13 -14 0 -15 53 -6 58 9 4 12 -21 15 -45 5z"/>
<path d="M775 1620 c3 -5 17 -10 31 -10 13 0 24 5 24 10 0 6 -14 10 -31 10
-17 0 -28 -4 -24 -10z"/>
<path d="M950 1610 c0 -6 12 -15 26 -20 33 -13 34 -13 34 4 0 7 -10 16 -22 20
-32 8 -38 7 -38 -4z"/>
<path d="M611 1599 c-16 -6 -21 -13 -14 -20 12 -12 63 5 63 21 0 12 -17 12
-49 -1z"/>
<path d="M1035 1580 c-3 -6 6 -15 21 -20 15 -6 31 -13 35 -16 5 -3 9 1 9 9 0
7 -11 19 -25 25 -31 14 -32 15 -40 2z"/>
<path d="M543 1568 c-24 -11 -31 -28 -12 -28 17 0 49 20 49 30 0 12 -9 12 -37
-2z"/>
<path d="M4157 1552 c-38 -42 -11 -94 48 -94 58 0 88 58 49 96 -21 22 -77 20
-97 -2z"/>
<path d="M1120 1532 c0 -12 49 -37 57 -29 8 8 -26 36 -44 37 -7 0 -13 -4 -13
-8z"/>
<path d="M1913 1532 l-33 -3 0 -285 0 -284 165 0 165 0 0 50 0 50 -105 0 -105
0 0 75 0 75 95 0 95 0 0 50 0 50 -95 0 -95 0 0 65 0 65 105 0 105 0 0 45 c0
25 -3 45 -7 45 -60 3 -266 4 -290 2z"/>
<path d="M459 1511 c-13 -11 -21 -23 -17 -26 9 -9 58 21 58 35 0 15 -15 12
-41 -9z"/>
<path d="M1190 1482 c0 -10 43 -52 53 -52 16 0 5 30 -15 44 -25 18 -38 20 -38
8z"/>
<path d="M1260 1411 c0 -15 38 -56 45 -49 9 9 -21 58 -35 58 -6 0 -10 -4 -10
-9z"/>
<path d="M2507 1396 c-21 -8 -46 -21 -56 -30 -24 -21 -28 -20 -35 9 -6 22 -12
25 -51 25 l-45 0 0 -220 0 -220 59 0 60 0 3 149 c3 142 4 151 27 175 18 19 35
26 62 26 62 0 69 -19 69 -197 l0 -153 61 0 60 0 -3 184 -3 185 -29 30 c-46 48
-110 61 -179 37z"/>
<path d="M2968 1400 c-85 -25 -134 -91 -145 -193 -11 -109 39 -202 127 -238
44 -17 163 -18 213 0 35 12 37 14 37 58 0 42 -1 45 -22 38 -13 -4 -48 -12 -79
-18 -74 -14 -128 10 -145 63 l-12 35 144 3 144 3 0 29 c0 16 -5 53 -11 82 -24
109 -138 172 -251 138z m121 -106 c12 -15 21 -35 21 -45 0 -17 -9 -19 -80 -19
-71 0 -80 2 -80 19 0 10 9 30 21 45 16 20 29 26 59 26 30 0 43 -6 59 -26z"/>
<path d="M3526 1400 c-16 -5 -44 -23 -62 -41 l-33 -32 -8 34 c-9 32 -12 34
-56 37 l-47 3 0 -220 0 -221 60 0 60 0 0 121 c0 169 24 211 123 211 34 0 35 1
40 50 4 28 4 55 1 59 -6 11 -39 10 -78 -1z"/>
<path d="M3770 1399 c-105 -32 -141 -165 -65 -242 l26 -25 -26 -26 c-30 -31
-32 -55 -4 -90 l20 -26 -24 -9 c-13 -5 -34 -22 -47 -38 -46 -58 0 -150 82
-167 55 -11 163 -6 215 9 129 38 165 190 58 248 -11 6 -64 14 -117 17 -54 3
-100 9 -104 12 -3 4 -3 16 1 27 5 18 14 21 61 21 64 0 109 17 144 55 21 22 25
37 26 93 1 62 3 67 25 72 18 4 25 14 27 38 l3 32 -74 0 c-41 0 -101 2 -133 5
-32 2 -75 0 -94 -6z m126 -94 c20 -31 13 -94 -13 -112 -27 -20 -70 -16 -87 9
-21 29 -20 92 0 112 25 26 81 20 100 -9z m52 -367 c33 -33 -2 -75 -74 -86
-110 -17 -179 34 -116 86 21 16 174 16 190 0z"/>
<path d="M4505 1404 c-11 -3 -39 -12 -62 -20 l-43 -16 20 -39 c11 -21 21 -39
23 -39 1 0 24 7 51 15 91 28 136 11 136 -48 0 -26 -2 -27 -62 -27 -127 -1
-208 -54 -208 -137 0 -46 23 -98 52 -116 57 -37 150 -29 207 18 l29 25 10 -30
c10 -27 15 -30 51 -30 l41 0 0 173 c0 193 -8 220 -72 253 -32 17 -135 27 -173
18z m125 -279 c0 -46 -39 -85 -85 -85 -41 0 -57 19 -53 62 4 39 34 58 96 58
42 0 42 0 42 -35z"/>
<path d="M4150 1180 l0 -220 60 0 60 0 0 220 0 220 -60 0 -60 0 0 -220z"/>
<path d="M2181 782 l4 -108 -33 23 c-49 33 -95 39 -147 18 -54 -20 -80 -51
-100 -118 -43 -147 16 -304 122 -321 49 -8 99 7 134 40 l27 25 10 -30 c10 -29
15 -31 56 -31 l46 0 0 305 0 305 -61 0 -61 0 3 -108z m-25 -175 c20 -18 28
-35 32 -75 10 -107 -20 -162 -89 -162 -67 0 -100 73 -79 176 17 83 78 110 136
61z"/>
<path d="M4521 782 l4 -108 -33 23 c-49 33 -95 39 -147 18 -54 -20 -80 -51
-100 -118 -43 -147 16 -304 122 -321 49 -8 99 7 134 40 l27 25 10 -30 c10 -29
15 -31 56 -31 l46 0 0 305 0 305 -61 0 -61 0 3 -108z m-25 -175 c20 -18 28
-35 32 -75 10 -107 -20 -162 -89 -162 -67 0 -100 73 -79 176 17 83 78 110 136
61z"/>
<path d="M1467 758 c-19 -57 -64 -188 -101 -291 l-65 -188 66 3 67 3 20 68 19
68 106 -3 105 -3 20 -67 19 -68 63 0 c35 0 64 4 64 9 0 4 -44 134 -99 287
l-98 279 -76 3 -75 3 -35 -103z m147 -112 c20 -63 36 -117 36 -120 0 -9 -140
-7 -140 2 0 8 64 232 67 232 1 0 18 -51 37 -114z"/>
<path d="M3464 775 c-7 -19 -14 -39 -14 -44 0 -5 -16 -18 -35 -30 -25 -15 -35
-27 -35 -46 0 -21 5 -25 30 -25 l30 0 0 -137 c0 -119 3 -142 20 -170 23 -39
82 -58 148 -48 69 10 72 13 72 60 l0 43 -45 -6 c-70 -7 -75 1 -75 139 l0 119
60 0 60 0 0 45 0 45 -60 0 -60 0 0 45 0 45 -41 0 c-36 0 -41 -3 -55 -35z"/>
<path d="M2511 715 c-29 -8 -57 -18 -62 -21 -5 -3 0 -23 12 -45 15 -31 24 -39
37 -34 9 4 40 12 68 18 66 14 104 -6 104 -53 l0 -30 -62 0 c-81 0 -132 -15
-170 -49 -42 -37 -50 -118 -18 -169 45 -72 162 -81 238 -17 l28 24 11 -30 c10
-26 16 -29 52 -29 l41 0 0 168 c0 188 -9 221 -68 255 -44 26 -142 31 -211 12z
m159 -267 c-1 -37 -14 -59 -47 -76 -55 -30 -115 4 -97 56 12 34 47 52 102 52
41 0 42 -1 42 -32z"/>
<path d="M3115 723 c-11 -3 -34 -16 -52 -29 -39 -30 -39 -30 -47 1 -6 22 -11
25 -56 25 l-50 0 0 -315 0 -315 60 0 60 0 0 122 0 121 23 -21 c59 -55 150 -52
207 8 43 44 60 96 60 181 0 81 -14 130 -47 170 -41 49 -96 67 -158 52z m45
-103 c61 -33 50 -230 -14 -246 -74 -18 -111 27 -111 132 0 63 3 76 24 98 26
27 67 34 101 16z"/>
<path d="M3857 716 c-66 -18 -72 -26 -51 -70 13 -26 23 -35 33 -31 41 16 111
27 133 22 27 -7 55 -57 43 -76 -3 -6 -34 -11 -68 -11 -78 -1 -154 -27 -180
-61 -24 -33 -26 -113 -3 -156 35 -69 163 -81 230 -22 l34 29 12 -30 c11 -27
17 -30 56 -30 l44 0 0 148 c0 81 -5 164 -9 186 -23 96 -136 139 -274 102z
m159 -273 c-12 -66 -74 -101 -127 -73 -29 16 -25 64 7 89 19 15 41 21 76 21
l50 0 -6 -37z"/>
<path d="M4915 725 c-5 -2 -22 -6 -38 -9 -15 -4 -45 -23 -67 -42 -94 -85 -89
-274 9 -357 67 -56 205 -56 272 0 100 85 99 289 -3 366 -43 33 -134 55 -173
42z m96 -114 c22 -18 24 -27 24 -111 0 -84 -2 -93 -24 -111 -28 -23 -78 -25
-108 -4 -49 34 -51 189 -2 228 28 23 81 22 110 -2z"/>
<path d="M5453 711 c-23 -11 -48 -29 -55 -40 -18 -30 -26 -26 -34 14 -6 34 -8
35 -50 35 l-44 0 0 -220 0 -220 60 0 60 0 0 136 0 136 29 29 c27 27 54 34 102
30 17 -2 29 35 29 90 0 25 -4 29 -27 29 -16 0 -47 -9 -70 -19z"/>
<path d="M5775 726 c-5 -2 -22 -7 -37 -10 -75 -17 -131 -109 -131 -216 1 -151
74 -224 228 -224 46 -1 94 5 113 13 29 12 32 17 32 58 0 39 -2 44 -17 38 -44
-16 -117 -26 -150 -20 -42 8 -83 48 -83 81 l0 24 141 0 142 0 -5 64 c-7 80
-37 136 -89 165 -35 20 -121 36 -144 27z m92 -108 c11 -13 23 -33 26 -45 5
-22 3 -23 -79 -23 -78 0 -84 1 -84 20 0 60 96 93 137 48z"/>
<path d="M6181 718 c-75 -21 -109 -68 -98 -135 8 -49 40 -80 117 -115 64 -29
100 -54 100 -69 0 -4 -7 -15 -16 -23 -20 -20 -76 -20 -140 -1 -27 8 -53 15
-57 15 -4 0 -7 -21 -5 -47 l3 -48 50 -13 c61 -16 162 -9 211 14 43 20 64 59
64 117 0 61 -28 93 -115 132 -83 38 -104 58 -85 80 16 19 57 19 116 -1 25 -8
47 -14 49 -12 7 7 35 81 32 84 -1 2 -29 10 -62 19 -66 17 -114 18 -164 3z"/>
<path d="M70 135 c0 -32 2 -35 30 -35 28 0 30 3 30 35 0 32 -2 35 -30 35 -28
0 -30 -3 -30 -35z"/>
<path d="M200 135 c0 -32 2 -35 30 -35 28 0 30 3 30 35 0 32 -2 35 -30 35 -28
0 -30 -3 -30 -35z"/>
<path d="M330 135 c0 -32 2 -35 30 -35 28 0 30 3 30 35 0 32 -2 35 -30 35 -28
0 -30 -3 -30 -35z"/>
<path d="M460 135 c0 -35 1 -36 33 -33 28 3 32 6 32 33 0 27 -4 30 -32 33 -32
3 -33 2 -33 -33z"/>
<path d="M590 136 c0 -35 1 -36 36 -36 34 0 35 1 32 33 -3 28 -7 32 -35 35
-32 3 -33 2 -33 -32z"/>
<path d="M727 164 c-4 -4 -7 -20 -7 -36 0 -25 3 -28 36 -28 34 0 35 1 32 33
-2 26 -8 33 -28 35 -14 2 -29 0 -33 -4z"/>
<path d="M850 130 c0 -28 3 -30 35 -30 32 0 35 2 35 30 0 28 -3 30 -35 30 -32
0 -35 -2 -35 -30z"/>
<path d="M980 130 c0 -28 3 -30 35 -30 32 0 35 2 35 30 0 28 -3 30 -35 30 -32
0 -35 -2 -35 -30z"/>
<path d="M1110 130 c0 -28 3 -30 35 -30 32 0 35 2 35 30 0 28 -3 30 -35 30
-32 0 -35 -2 -35 -30z"/>
<path d="M1240 130 c0 -28 3 -30 35 -30 32 0 35 2 35 30 0 28 -3 30 -35 30
-32 0 -35 -2 -35 -30z"/>
<path d="M1370 130 c0 -28 3 -30 35 -30 32 0 35 2 35 30 0 28 -3 30 -35 30
-32 0 -35 -2 -35 -30z"/>
<path d="M1500 130 c0 -28 3 -30 35 -30 32 0 35 2 35 30 0 28 -3 30 -35 30
-32 0 -35 -2 -35 -30z"/>
<path d="M1640 130 c0 -27 3 -30 30 -30 27 0 30 3 30 30 0 27 -3 30 -30 30
-27 0 -30 -3 -30 -30z"/>
<path d="M1770 125 c0 -32 2 -35 30 -35 28 0 30 3 30 35 0 32 -2 35 -30 35
-28 0 -30 -3 -30 -35z"/>
<path d="M1900 125 c0 -32 2 -35 30 -35 28 0 30 3 30 35 0 32 -2 35 -30 35
-28 0 -30 -3 -30 -35z"/>
<path d="M2030 125 c0 -32 2 -35 30 -35 28 0 30 3 30 35 0 32 -2 35 -30 35
-28 0 -30 -3 -30 -35z"/>
<path d="M2160 125 c0 -32 2 -35 30 -35 28 0 30 3 30 35 0 32 -2 35 -30 35
-28 0 -30 -3 -30 -35z"/>
<path d="M2290 125 c0 -32 2 -35 30 -35 28 0 30 3 30 35 0 32 -2 35 -30 35
-28 0 -30 -3 -30 -35z"/>
<path d="M2420 125 c0 -32 2 -35 30 -35 28 0 30 3 30 35 0 32 -2 35 -30 35
-28 0 -30 -3 -30 -35z"/>
<path d="M2550 125 c0 -32 2 -35 30 -35 28 0 30 3 30 35 0 32 -2 35 -30 35
-28 0 -30 -3 -30 -35z"/>
<path d="M2680 126 c0 -35 1 -36 36 -36 34 0 35 1 32 33 -3 28 -7 32 -35 35
-32 3 -33 2 -33 -32z"/>
<path d="M2810 120 c0 -28 3 -30 35 -30 32 0 35 2 35 30 0 28 -3 30 -35 30
-32 0 -35 -2 -35 -30z"/>
<path d="M3070 120 c0 -28 3 -30 35 -30 32 0 35 2 35 30 0 28 -3 30 -35 30
-32 0 -35 -2 -35 -30z"/>
<path d="M3200 120 c0 -28 3 -30 35 -30 32 0 35 2 35 30 0 28 -3 30 -35 30
-32 0 -35 -2 -35 -30z"/>
<path d="M3330 120 c0 -28 3 -30 35 -30 32 0 35 2 35 30 0 28 -3 30 -35 30
-32 0 -35 -2 -35 -30z"/>
<path d="M3460 120 c0 -28 3 -30 35 -30 32 0 35 2 35 30 0 28 -3 30 -35 30
-32 0 -35 -2 -35 -30z"/>
<path d="M3590 120 c0 -28 3 -30 35 -30 32 0 35 2 35 30 0 28 -3 30 -35 30
-32 0 -35 -2 -35 -30z"/>
<path d="M3722 118 c3 -29 7 -33 36 -36 31 -3 32 -2 32 32 0 35 -1 36 -36 36
-34 0 -35 -1 -32 -32z"/>
<path d="M3860 115 c0 -32 2 -35 30 -35 28 0 30 3 30 35 0 32 -2 35 -30 35
-28 0 -30 -3 -30 -35z"/>
<path d="M3990 115 c0 -32 2 -35 30 -35 28 0 30 3 30 35 0 32 -2 35 -30 35
-28 0 -30 -3 -30 -35z"/>
<path d="M4120 115 c0 -32 2 -35 30 -35 28 0 30 3 30 35 0 32 -2 35 -30 35
-28 0 -30 -3 -30 -35z"/>
<path d="M4250 115 c0 -32 2 -35 30 -35 28 0 30 3 30 35 0 32 -2 35 -30 35
-28 0 -30 -3 -30 -35z"/>
<path d="M4380 115 c0 -32 2 -35 30 -35 28 0 30 3 30 35 0 32 -2 35 -30 35
-28 0 -30 -3 -30 -35z"/>
<path d="M4510 115 c0 -32 2 -35 30 -35 28 0 30 3 30 35 0 32 -2 35 -30 35
-28 0 -30 -3 -30 -35z"/>
<path d="M4640 115 c0 -32 2 -35 30 -35 28 0 30 3 30 35 0 32 -2 35 -30 35
-28 0 -30 -3 -30 -35z"/>
<path d="M4770 110 c0 -26 3 -30 29 -30 24 0 29 5 33 30 4 28 3 30 -29 30 -30
0 -33 -3 -33 -30z"/>
<path d="M4900 110 c0 -28 3 -30 35 -30 32 0 35 2 35 30 0 28 -3 30 -35 30
-32 0 -35 -2 -35 -30z"/>
<path d="M5030 110 c0 -28 3 -30 35 -30 32 0 35 2 35 30 0 28 -3 30 -35 30
-32 0 -35 -2 -35 -30z"/>
<path d="M5160 110 c0 -28 3 -30 35 -30 32 0 35 2 35 30 0 28 -3 30 -35 30
-32 0 -35 -2 -35 -30z"/>
<path d="M5290 110 c0 -28 3 -30 35 -30 32 0 35 2 35 30 0 28 -3 30 -35 30
-32 0 -35 -2 -35 -30z"/>
<path d="M5420 110 c0 -28 3 -30 35 -30 32 0 35 2 35 30 0 28 -3 30 -35 30
-32 0 -35 -2 -35 -30z"/>
<path d="M5550 110 c0 -28 3 -30 35 -30 32 0 35 2 35 30 0 28 -3 30 -35 30
-32 0 -35 -2 -35 -30z"/>
<path d="M5682 108 c3 -29 6 -33 33 -33 27 0 30 4 33 33 3 31 2 32 -33 32 -35
0 -36 -1 -33 -32z"/>
<path d="M5812 108 c3 -29 7 -33 36 -36 31 -3 32 -2 32 32 0 35 -1 36 -36 36
-34 0 -35 -1 -32 -32z"/>
<path d="M5946 115 c-9 -35 -1 -45 35 -45 27 0 29 3 29 35 0 32 -3 35 -29 35
-23 0 -30 -6 -35 -25z"/>
<path d="M6080 105 c0 -32 2 -35 30 -35 28 0 30 3 30 35 0 32 -2 35 -30 35
-28 0 -30 -3 -30 -35z"/>
<path d="M6210 105 c0 -32 2 -35 30 -35 28 0 30 3 30 35 0 32 -2 35 -30 35
-28 0 -30 -3 -30 -35z"/>
<path d="M6340 105 c0 -32 2 -35 30 -35 28 0 30 3 30 35 0 32 -2 35 -30 35
-28 0 -30 -3 -30 -35z"/>
<path d="M6470 105 c0 -28 4 -35 20 -35 16 0 20 7 20 35 0 28 -4 35 -20 35
-16 0 -20 -7 -20 -35z"/>
</g>
</svg>
