<?xml version="1.0" standalone="no"?>
<!DOCTYPE svg PUBLIC "-//W3C//DTD SVG 20010904//EN"
 "http://www.w3.org/TR/2001/REC-SVG-20010904/DTD/svg10.dtd">
<svg version="1.0" xmlns="http://www.w3.org/2000/svg"
 width="1600.000000pt" height="1304.000000pt" viewBox="0 0 1600.000000 1304.000000"
 preserveAspectRatio="xMidYMid meet">

<g transform="translate(0.000000,1304.000000) scale(0.100000,-0.100000)"
fill="#121214" stroke="none">
<path d="M0 11030 l0 -2010 1329 0 c732 0 1332 3 1335 8 2 4 -11 38 -30 76
-73 144 -138 230 -316 416 l-177 185 -1 732 c0 421 4 734 9 737 12 8 461 42
721 56 383 20 684 57 1110 136 638 118 1319 327 1930 591 149 65 453 214 530
260 36 22 121 72 190 113 69 40 190 111 270 159 80 47 154 91 165 97 21 11
187 108 473 278 90 53 166 96 168 96 3 0 17 8 32 19 15 10 43 28 62 40 l35 21
-3917 0 -3918 0 0 -2010z"/>
<path d="M7851 13036 c7 -7 770 -456 774 -456 3 0 30 -16 61 -36 31 -20 120
-73 198 -118 78 -46 206 -121 286 -168 626 -369 1613 -719 2500 -887 407 -76
753 -121 1060 -136 144 -7 645 -42 738 -51 l62 -6 0 -742 0 -741 -111 -110
c-61 -61 -161 -168 -221 -240 -61 -71 -147 -170 -192 -219 -45 -48 -82 -92
-84 -97 -2 -5 641 -9 1537 -9 l1541 0 0 2010 0 2010 -4077 0 c-2242 0 -4074
-2 -4072 -4z"/>
<path d="M8026 12653 c-3 -4 -6 -872 -6 -1930 l0 -1923 -1730 0 -1729 0 -15
53 c-8 28 -27 97 -41 152 -33 123 -142 453 -184 555 -17 41 -31 80 -31 87 0
15 29 23 175 48 357 61 1134 280 1549 437 70 26 130 48 132 48 2 0 4 -211 4
-470 l0 -470 733 -2 c402 -2 740 -1 750 1 16 3 17 93 17 1708 0 1684 0 1704
-19 1698 -11 -3 -75 -39 -143 -79 -68 -40 -213 -126 -323 -191 -110 -64 -233
-137 -273 -161 -40 -24 -75 -44 -79 -44 -4 0 -14 -6 -22 -14 -9 -7 -36 -25
-61 -38 -25 -14 -99 -56 -165 -95 -240 -139 -654 -328 -985 -450 -368 -136
-1007 -330 -1180 -358 -19 -3 -105 -21 -190 -40 -274 -60 -627 -118 -780 -129
-36 -2 -141 -11 -235 -20 -93 -8 -298 -25 -455 -36 -157 -11 -304 -23 -327
-26 l-43 -5 0 -581 0 -581 148 -151 c149 -153 243 -278 311 -414 60 -120 171
-394 171 -423 0 -5 -527 -9 -1385 -9 l-1385 0 0 -2110 0 -2110 1415 0 c778 0
1415 -1 1415 -2 0 -32 -109 -234 -142 -264 -13 -12 -185 -112 -383 -224 -198
-111 -363 -205 -367 -208 -4 -4 66 -83 154 -177 89 -93 240 -253 337 -355 356
-377 678 -673 1121 -1029 91 -72 172 -138 180 -144 75 -61 429 -317 565 -409
22 -15 58 -40 80 -55 123 -87 524 -335 660 -408 50 -27 108 -60 130 -73 82
-51 527 -272 710 -352 208 -91 478 -197 650 -255 61 -21 184 -64 275 -97 91
-33 228 -82 305 -108 77 -26 177 -62 223 -79 46 -17 85 -31 88 -31 2 0 4 770
4 1710 l0 1710 -750 0 -750 0 0 -600 c0 -330 -2 -600 -5 -600 -8 0 -335 189
-413 239 -451 287 -839 569 -1217 886 -65 55 -128 108 -140 117 -19 16 -19 18
-3 50 76 150 159 378 224 615 l39 143 1693 0 1692 0 0 -2129 c0 -1195 4 -2132
9 -2135 4 -3 46 8 92 25 93 35 465 166 744 264 212 73 481 177 615 235 52 23
120 53 150 65 30 13 88 40 128 59 40 20 74 36 76 36 4 0 146 65 366 167 41 19
135 62 208 95 72 33 132 63 132 67 0 3 -39 31 -88 61 -48 30 -150 95 -227 145
-153 100 -439 284 -593 382 l-97 62 -5 1300 -5 1301 567 0 567 0 117 -168 c97
-138 202 -281 339 -461 40 -53 231 -288 304 -375 l75 -89 62 -506 c34 -278 65
-537 69 -576 4 -38 8 -83 10 -100 2 -16 6 -57 10 -90 7 -80 15 -115 24 -115 8
0 603 529 861 765 135 123 1291 1285 1298 1304 1 4 -246 46 -549 94 -545 86
-551 87 -573 114 -11 16 -43 53 -71 84 -66 73 -95 108 -95 114 0 3 724 5 1609
5 l1609 0 6 22 c8 30 8 4162 0 4182 -6 15 -166 16 -1710 16 -976 0 -1704 4
-1704 9 0 5 17 21 38 37 48 36 429 416 515 514 63 71 76 87 121 142 11 12 80
85 153 160 l133 138 0 579 0 580 -42 5 c-42 5 -120 11 -538 41 -113 8 -248 19
-300 25 -52 5 -126 12 -165 15 -154 12 -469 61 -695 109 -91 19 -210 44 -265
56 -398 84 -1059 294 -1465 465 -74 32 -160 67 -190 80 -200 83 -446 212 -728
379 -84 50 -167 99 -185 110 -18 10 -169 99 -337 199 -377 223 -367 217 -374
210z m-996 -1978 l0 -925 -140 0 -140 0 0 675 c0 478 -3 675 -11 675 -6 0 -47
-18 -92 -41 -250 -125 -671 -298 -1016 -418 -261 -91 -768 -241 -936 -276 -38
-8 -164 -35 -280 -60 -193 -42 -555 -108 -650 -118 -366 -40 -475 -53 -475
-60 0 -4 22 -35 50 -68 190 -228 405 -657 517 -1029 22 -73 62 -220 63 -227 0
-2 -67 -3 -149 -3 l-150 0 -47 148 c-138 436 -327 794 -543 1024 l-61 66 0
179 0 180 158 12 c288 23 583 62 952 126 244 43 343 64 665 146 771 196 1640
537 2159 848 66 39 121 71 123 71 2 0 3 -416 3 -925z m1722 852 c146 -88 414
-224 617 -314 356 -158 900 -356 1261 -458 217 -62 680 -174 805 -195 440 -75
537 -91 677 -109 86 -11 249 -28 362 -37 l206 -18 0 -178 0 -178 -152 -178
c-308 -357 -609 -635 -973 -897 -60 -44 -112 -82 -115 -85 -3 -3 -31 -22 -62
-43 l-58 -37 -277 0 c-272 0 -277 1 -248 18 17 10 86 52 155 93 419 249 828
570 1126 881 103 108 294 330 294 342 0 3 -15 6 -32 6 -49 -1 -381 38 -568 66
-886 131 -1953 457 -2712 829 -73 36 -136 65 -140 65 -4 0 -8 -517 -8 -1150
l0 -1150 -145 0 -145 0 0 1400 c0 770 2 1400 4 1400 2 0 60 -33 128 -73z m953
-1410 c364 -134 934 -300 1355 -393 l25 -6 -25 -19 c-129 -101 -430 -291 -676
-425 -143 -78 -192 -102 -424 -211 -73 -35 -323 -142 -417 -180 -10 -4 -13
129 -13 647 0 518 3 651 13 647 6 -2 80 -29 162 -60z m5665 -3427 l0 -1700
-7370 0 -7370 0 0 1700 0 1700 7370 0 7370 0 0 -1700z m-11395 -2182 c-101
-316 -210 -545 -345 -723 -33 -44 -60 -85 -60 -91 0 -7 48 -57 108 -111 758
-705 1567 -1281 2382 -1696 249 -127 651 -307 686 -307 2 0 4 369 4 820 l0
820 140 0 140 0 0 -1025 c0 -564 -3 -1025 -7 -1025 -14 0 -304 105 -443 160
-589 234 -1237 589 -1815 995 -140 98 -429 312 -519 383 -50 40 -104 83 -119
95 -15 12 -38 30 -50 41 -12 10 -60 50 -107 90 -220 184 -423 369 -622 565
-120 118 -218 218 -218 223 0 4 37 32 83 61 45 30 98 72 119 94 54 61 145 194
188 276 55 105 139 307 161 385 l12 42 153 0 152 0 -23 -72z m4937 -1430 l3
-1501 120 -24 c66 -12 174 -33 240 -44 66 -12 124 -25 128 -29 13 -11 -322
-153 -563 -238 -63 -22 -139 -49 -167 -61 l-53 -21 0 1710 0 1710 145 0 145 0
2 -1502z m2903 1419 c52 -71 128 -166 196 -246 11 -14 55 -65 97 -115 42 -50
125 -145 184 -212 117 -131 106 -125 251 -150 l39 -7 -229 -221 c-261 -254
-353 -339 -359 -334 -2 3 22 113 52 246 l56 242 -69 77 c-64 72 -231 270 -313
372 -19 24 -46 57 -60 74 -53 65 -260 342 -260 350 0 4 80 7 178 7 l177 -1 60
-82z"/>
<path d="M9750 9540 c0 -197 4 -310 10 -310 19 0 317 142 465 222 207 111 287
160 278 168 -4 4 -62 21 -128 39 -66 18 -231 68 -367 112 -135 43 -249 79
-252 79 -3 0 -6 -139 -6 -310z"/>
<path d="M860 6690 l0 -1470 7135 0 7135 0 0 1470 0 1470 -7135 0 -7135 0 0
-1470z m12897 1153 c-10 -35 -46 -190 -71 -303 -14 -63 -52 -218 -83 -345
l-58 -230 -124 -3 -123 -3 6 33 c3 18 10 74 16 123 13 104 98 689 105 723 5
22 7 22 171 22 153 0 165 -1 161 -17z m-11778 -61 c5 -10 13 -49 16 -88 4 -38
15 -116 26 -173 10 -58 19 -115 19 -128 l0 -23 -189 0 c-104 0 -196 -3 -205
-6 -14 -6 -16 -77 -16 -703 0 -529 3 -700 12 -709 9 -9 68 -12 205 -12 167 0
193 -2 193 -15 0 -9 -9 -66 -20 -128 -11 -62 -22 -134 -25 -162 -3 -27 -8 -65
-11 -83 l-7 -34 -281 4 c-314 4 -328 6 -399 76 -75 73 -71 27 -75 1046 -2 627
1 926 8 962 18 87 84 159 170 185 14 4 147 8 297 8 253 1 273 0 282 -17z m611
-912 l0 -930 200 0 c153 0 200 -3 200 -12 0 -7 -14 -102 -32 -210 l-32 -198
-373 0 -373 0 0 1133 c0 624 3 1137 7 1140 3 4 96 7 205 7 l198 0 0 -930z
m1281 880 c4 -25 9 -70 13 -100 3 -30 44 -289 91 -575 46 -286 89 -558 95
-605 6 -47 43 -275 81 -506 38 -232 69 -427 69 -433 0 -13 -400 -16 -401 -3 0
4 -8 66 -17 137 l-18 130 -135 3 -135 3 -18 -141 -18 -140 -199 0 c-183 0
-199 1 -199 18 0 19 60 406 157 1002 35 223 73 464 84 535 10 72 40 264 66
428 l47 297 215 -2 216 -3 6 -45z m1206 38 c6 -7 16 -58 23 -113 7 -55 21
-146 30 -202 l17 -103 -237 0 c-170 0 -239 -3 -248 -12 -17 -17 -17 -481 1
-496 7 -6 88 -12 187 -14 210 -4 242 -15 281 -95 24 -48 24 -51 27 -450 4
-410 -5 -579 -32 -643 -8 -19 -29 -50 -48 -69 -62 -64 -71 -65 -410 -69 l-306
-4 -6 29 c-3 15 -10 57 -16 93 -5 36 -19 114 -30 174 -11 61 -20 113 -20 118
0 4 97 8 216 8 129 0 223 4 235 10 18 10 19 24 19 255 0 231 -1 245 -19 255
-11 6 -87 10 -174 10 -198 0 -231 13 -283 110 -18 33 -19 69 -22 509 -3 540
-3 545 70 626 72 79 100 84 444 85 222 0 294 -3 301 -12z m1044 5 c1 -5 3 -22
5 -40 6 -56 54 -347 60 -365 5 -17 -11 -18 -233 -18 -173 0 -242 -3 -251 -12
-17 -17 -17 -481 1 -496 7 -6 88 -12 187 -14 210 -4 238 -13 280 -94 l25 -49
3 -402 c5 -577 -8 -669 -108 -738 -54 -37 -124 -45 -422 -45 l-266 0 -6 28
c-3 15 -10 56 -16 92 -5 36 -19 114 -30 174 -11 61 -20 113 -20 118 0 4 97 8
216 8 129 0 223 4 235 10 18 10 19 24 19 255 0 184 -3 246 -12 252 -7 4 -92
10 -189 13 -174 5 -176 5 -212 33 -21 16 -47 47 -60 70 -22 42 -22 43 -22 537
0 492 0 495 22 540 31 64 82 109 145 131 47 16 88 18 351 19 163 0 298 -3 298
-7z m637 -1135 l2 -1138 -200 0 -200 0 0 1140 0 1140 198 -2 197 -3 3 -1137z
m922 1133 c0 -4 16 -100 35 -212 19 -112 35 -205 35 -206 0 -2 -90 -3 -199 -3
-110 0 -202 -4 -205 -9 -3 -5 -6 -323 -6 -707 0 -555 2 -699 12 -706 7 -4 100
-8 206 -8 179 0 193 -1 189 -17 -3 -10 -20 -105 -38 -211 l-32 -194 -281 4
-281 3 -55 28 c-32 16 -65 42 -79 63 -56 81 -55 67 -59 999 -2 588 0 887 8
945 12 91 42 156 91 192 57 43 91 47 382 48 152 0 277 -4 277 -9z m1433 -19
c26 -13 61 -40 77 -60 60 -73 61 -78 58 -744 l-3 -605 -29 -42 c-29 -41 -88
-81 -121 -81 -8 0 -15 -3 -15 -7 0 -4 31 -113 69 -242 68 -233 131 -456 131
-466 0 -3 -92 -5 -205 -5 l-204 0 -10 38 c-6 20 -26 96 -44 167 -99 376 -138
509 -148 516 -37 23 -39 8 -39 -362 l0 -359 -200 0 -200 0 0 1141 0 1140 418
-3 c414 -3 417 -3 465 -26z m707 -1112 l0 -1140 -200 0 -200 0 0 1133 c0 624
3 1137 7 1140 3 4 93 7 200 7 l193 0 0 -1140z m1055 1114 c48 -26 65 -45 96
-104 l24 -45 0 -945 c0 -910 -1 -947 -19 -997 -11 -29 -35 -69 -55 -88 -67
-70 -60 -69 -518 -73 l-413 -3 0 1141 0 1141 423 -3 c409 -3 423 -4 462 -24z
m1087 -89 c9 -60 20 -135 23 -165 6 -58 13 -104 21 -132 5 -17 -10 -18 -210
-18 l-216 0 0 -270 0 -270 165 0 165 0 -2 -197 -3 -196 -162 2 -163 2 0 -250
0 -251 209 0 209 0 -9 -37 c-4 -21 -20 -116 -35 -210 l-27 -173 -378 0 -379 0
0 1140 0 1140 387 -2 387 -3 18 -110z m1071 82 c38 -19 66 -42 83 -67 54 -81
54 -87 54 -719 l0 -586 -24 -51 c-24 -51 -67 -86 -121 -100 -14 -3 -25 -10
-25 -16 0 -12 42 -161 95 -338 24 -80 56 -190 70 -245 15 -55 30 -105 32 -112
4 -11 -36 -13 -202 -11 l-208 3 -72 270 c-40 149 -82 309 -95 357 -19 74 -26
87 -46 91 -13 2 -26 2 -29 -1 -3 -3 -5 -167 -5 -364 l0 -358 -200 0 -200 0 0
1133 c0 624 3 1137 7 1141 4 4 192 6 418 4 l410 -3 58 -28z m1679 -27 c14 -98
49 -324 54 -347 l4 -23 -238 0 c-172 0 -241 -3 -250 -12 -17 -17 -17 -468 1
-490 10 -14 40 -17 187 -20 211 -4 239 -13 280 -94 l25 -49 0 -475 c0 -517 -3
-546 -55 -618 -16 -22 -49 -50 -77 -63 -47 -23 -55 -24 -354 -27 l-305 -4 -33
189 c-18 103 -35 198 -38 211 l-5 22 224 0 c161 0 227 3 236 12 17 17 17 489
0 506 -8 8 -61 12 -173 12 -147 0 -165 2 -205 23 -54 27 -85 71 -100 142 -7
35 -10 202 -8 506 l3 454 30 60 c17 32 47 72 67 89 64 50 103 55 428 53 l295
-2 7 -55z"/>
<path d="M3602 6563 c-24 -197 -43 -368 -42 -380 0 -22 3 -23 90 -23 88 0 90
0 86 23 -5 21 -23 186 -62 570 -10 92 -20 167 -24 167 -3 0 -25 -161 -48 -357z"/>
<path d="M8630 7010 l0 -390 109 0 c90 0 110 3 115 16 3 9 6 177 6 374 0 313
-2 361 -16 374 -12 12 -38 16 -115 16 l-99 0 0 -390z"/>
<path d="M10380 6660 l0 -740 110 0 110 0 0 728 c0 553 -3 731 -12 740 -8 8
-47 12 -110 12 l-98 0 0 -740z"/>
<path d="M12540 7010 l0 -390 114 0 c95 0 115 3 120 16 3 9 6 177 6 374 0 313
-2 361 -16 374 -12 13 -38 16 -120 16 l-104 0 0 -390z"/>
<path d="M5847 9829 c-173 -70 -859 -263 -1113 -314 -70 -14 -129 -27 -132
-29 -2 -2 24 -89 57 -192 33 -104 65 -208 71 -232 l11 -42 587 2 587 3 0 409
c0 264 -4 410 -10 412 -5 2 -32 -6 -58 -17z"/>
<path d="M1252 4353 l-1252 -3 0 -2175 0 -2175 3908 1 3907 0 -75 29 c-70 27
-225 82 -620 220 -265 93 -542 191 -580 205 -19 8 -84 32 -145 55 -60 23 -123
47 -140 55 -16 7 -66 27 -110 45 -500 202 -1236 609 -1753 969 -68 47 -134 93
-146 101 -177 120 -689 513 -791 607 -11 10 -49 43 -85 73 -325 274 -570 507
-918 874 -152 160 -351 370 -443 466 -91 96 -178 189 -193 206 l-26 32 113 62
c298 165 607 343 607 351 0 5 -1 8 -2 7 -2 -2 -567 -4 -1256 -5z"/>
<path d="M14296 4351 c-3 -5 1 -11 9 -13 9 -2 -192 -213 -527 -553 -826 -840
-1009 -1019 -1318 -1295 -157 -140 -301 -269 -320 -287 -19 -17 -46 -41 -60
-53 -23 -20 -135 -120 -200 -180 -15 -14 -67 -61 -116 -105 -86 -77 -174 -157
-241 -219 -18 -16 -35 -27 -37 -25 -6 6 -33 220 -41 324 -5 67 -118 1001 -150
1246 -8 63 -15 132 -15 152 0 28 -10 49 -46 94 -26 32 -56 68 -68 80 -11 11
-32 36 -46 54 -14 18 -30 37 -35 43 -49 52 -412 538 -535 715 -14 21 -18 21
-407 21 l-393 0 0 -1113 c0 -1049 1 -1115 18 -1129 9 -8 125 -83 257 -168 132
-84 276 -176 320 -205 139 -91 277 -180 380 -245 216 -136 297 -192 288 -201
-4 -4 -150 -73 -323 -152 -173 -79 -344 -158 -380 -175 -36 -16 -150 -69 -255
-117 -104 -48 -219 -101 -255 -117 -219 -101 -534 -229 -745 -302 -71 -24
-258 -90 -415 -146 -157 -56 -391 -139 -520 -184 -129 -46 -242 -85 -250 -89
-8 -3 1818 -6 4058 -6 l4072 -1 0 2175 0 2175 -834 0 c-459 0 -841 3 -849 6
-8 3 -18 1 -21 -5z"/>
<path d="M4765 4195 c-26 -86 -65 -197 -86 -248 -36 -88 -37 -93 -19 -107 21
-18 118 -101 134 -115 66 -60 415 -323 589 -445 43 -30 84 -60 90 -65 18 -16
346 -228 400 -259 l47 -27 0 521 0 520 940 0 940 0 0 190 0 190 -1493 0 -1493
0 -49 -155z"/>
</g>
</svg>
